PathFileType	4	(X/Y/Z)	C:\Users\Biomechanik\SynologyDrive\AlexP\Athlete_03\Athlete_3_22_07_06\sq_90_EMG\marker_experimental.trc																																																																																																																																																																															
DataRate	CameraRate	NumFrames	NumMarkers	Units	OrigDataRate	OrigDataStartFrame	OrigNumFrames																																																																																																																																																																											
200	200	5	59	mm	200	1211	1384																																																																																																																																																																											
Frame#	Time	BL			BR			GLAB			RFHD			LFHD			C7			T6			SPINMOL			SPINM2			SPINM3			T12			BELTOL			BELT2			BELT3			SACROL			SACR2			SACR3			LTHOL			LTH2			LTH3			LSHAOL			LSHA2			LSHA3			LHEE			LTOE			LM5			RTHOL			RTH2			RTH3			RSHAOL			RSHA2			RSHA3			RHEE			RTOE			RM5			STRN			XIPH			LACR			LUAOL			LUA2			LUA3			LLAOL			LLA2			LLA3			LWRU			RACR			RUAOL			RUA3			RLAOL			RLA2			RLA3			RWRU			RUA2			USERMO0			USERMO1			USERMO2			USERMO3			USERMO4			USERMO5		
		X1	Y1	Z1	X2	Y2	Z2	X3	Y3	Z3	X4	Y4	Z4	X5	Y5	Z5	X6	Y6	Z6	X7	Y7	Z7	X8	Y8	Z8	X9	Y9	Z9	X10	Y10	Z10	X11	Y11	Z11	X12	Y12	Z12	X13	Y13	Z13	X14	Y14	Z14	X15	Y15	Z15	X16	Y16	Z16	X17	Y17	Z17	X18	Y18	Z18	X19	Y19	Z19	X20	Y20	Z20	X21	Y21	Z21	X22	Y22	Z22	X23	Y23	Z23	X24	Y24	Z24	X25	Y25	Z25	X26	Y26	Z26	X27	Y27	Z27	X28	Y28	Z28	X29	Y29	Z29	X30	Y30	Z30	X31	Y31	Z31	X32	Y32	Z32	X33	Y33	Z33	X34	Y34	Z34	X35	Y35	Z35	X36	Y36	Z36	X37	Y37	Z37	X38	Y38	Z38	X39	Y39	Z39	X40	Y40	Z40	X41	Y41	Z41	X42	Y42	Z42	X43	Y43	Z43	X44	Y44	Z44	X45	Y45	Z45	X46	Y46	Z46	X47	Y47	Z47	X48	Y48	Z48	X49	Y49	Z49	X50	Y50	Z50	X51	Y51	Z51	X52	Y52	Z52	X53	Y53	Z53	X54	Y54	Z54	X55	Y55	Z55	X56	Y56	Z56	X57	Y57	Z57	X58	Y58	Z58	X59	Y59	Z59
																																																																																																																																																																																		
1212	6.055	121.9370117	1203.636475	-2316.956299	229.4288025	1268.136108	-98.08683014	513.1729736	1426.16687	-1201.134521	450.6271973	1445.972412	-1126.192505	454.1475525	1438.438965	-1284.222412	266.8143311	1344.872437	-1197.599609	124.7501678	1211.05481	-1199.177124	106.1278763	1189.504028	-1202.418823	70.85309601	1136.994141	-1153.447754	79.94608307	1133.327271	-1202.226074	64.49463654	1087.283447	-1196.20874	21.0564518	1065.741577	-1192.994385	-1.305067897	1010.430481	-1139.951172	-7.869192123	1010.739075	-1189.689697	-33.34463501	930.59021	-1213.512695	-20.39455795	939.1912842	-1164.764648	-58.30675888	885.3822632	-1172.137085	91.25092316	712.7734375	-1451.790161	69.89008331	635.5978394	-1448.275879	111.0799713	656.4937744	-1468.750244	129.8050232	327.2615967	-1559.442383	88.57723236	259.8275146	-1558.289673	136.7899933	266.3494263	-1569.429443	60.86320114	42.12591171	-1516.808105	263.4066467	47.52270508	-1560.109375	206.0770721	23.45733452	-1658.292358	92.10638428	686.3615723	-930.291748	145.8192139	640.6311035	-892.7729492	101.3888626	627.3824463	-912.2360229	91.05391693	323.3009644	-824.9446411	128.0443726	257.2129822	-801.2191772	83.11865997	262.005249	-823.027771	49.97543716	39.90704727	-875.6378174	241.6044464	43.8495903	-793.6245117	170.0572052	37.43823624	-709.5675049	361.8061218	1201.322632	-1210.513184	333.066925	1046.133667	-1202.799927	227.7638855	1279.095703	-1387.190918	95.1124115	1191.614624	-1404.285767	63.92305756	1150.848877	-1363.483765	59.38570786	1148.668457	-1413.993774	46.37067413	1112.269287	-1492.193848	90.33752441	1127.848389	-1537.389404	88.039505	1160.418335	-1499.321533	136.3908386	1203.425537	-1551.565186	261.268158	1282.904785	-1016.639832	135.4692383	1182.980103	-974.2381592	77.93983459	1159.262573	-980.6208496	88.33690643	1147.245483	-897.4389648	134.6949005	1191.244385	-908.3284912	129.9150391	1176.545776	-859.5157471	162.7076721	1212.197876	-840.2687988	nan	nan	nan	0.227121994	0.046245798	-0.265940994	0.085943498	0.170233995	-0.113922	0.073603801	0.021721	-0.133716002	0.082192503	0.196372002	-0.757515013	0.332320988	2.987010002	-0.341381997	2.87052989	0	0
1213	6.06	121.8249207	1205.242065	-2316.998535	229.0067139	1270.201538	-98.11495209	512.9724731	1427.773315	-1201.035889	450.4197083	1447.551636	-1126.084717	453.9458618	1440.105469	-1284.116943	266.585022	1346.508911	-1197.60376	124.5446014	1212.448486	-1199.176392	105.9226379	1190.781982	-1202.381958	70.79229736	1138.179077	-1153.403564	79.85742188	1134.551514	-1202.19104	64.50067902	1088.341553	-1196.186401	21.18246078	1066.581055	-1192.984497	-0.951654851	1011.143188	-1139.977173	-7.536099434	1011.467102	-1189.713745	-32.67898178	931.3826294	-1213.619629	-19.72976875	939.9718628	-1164.861206	-57.62424088	886.1557617	-1172.254028	91.49787903	713.428833	-1451.655884	69.76364136	636.369873	-1447.89917	111.0380478	657.0014038	-1468.46521	128.9637909	327.3630371	-1558.876953	87.92810822	259.8136597	-1557.826782	136.1117401	266.4966736	-1569.007568	60.84532166	42.07982254	-1516.822876	263.39151	47.55000687	-1560.132324	206.0717163	23.44025993	-1658.306641	92.0756073	686.9295654	-930.9069824	145.4502258	640.7399902	-893.4706421	100.9657211	627.8320923	-913.0402222	90.11676788	323.3312683	-825.7579956	127.2939377	257.4418945	-801.7804565	82.38535309	262.0163879	-823.6722412	49.95947647	39.83601379	-875.651001	241.5991669	43.86504745	-793.6173706	170.072113	37.43180847	-709.5889893	361.5999451	1202.970337	-1210.461914	332.8813477	1047.837891	-1202.761108	227.5623016	1280.67395	-1387.181885	94.97561646	1193.105469	-1404.238403	63.82261276	1152.303833	-1363.449829	59.2803154	1150.131836	-1413.960083	46.27891159	1113.732544	-1492.182983	90.23218536	1129.335571	-1537.385132	87.90670776	1161.892944	-1499.34021	136.2342682	1204.941284	-1551.585083	261.0041809	1284.601685	-1016.648499	135.2154236	1184.629639	-974.2907104	77.68558502	1160.841309	-980.7021484	88.09317017	1148.892212	-897.4868164	134.4470825	1192.89978	-908.3718262	129.6531219	1178.202759	-859.5500488	162.4487305	1213.868408	-840.277832	nan	nan	nan	0.226971	0.0466175	-0.261296988	0.0871225	0.168828994	-0.114708997	0.074593998	0.0217118	-0.133667007	0.083784796	0.193099007	-0.764881015	0.331993014	2.985130072	-0.338144004	2.869539976	0	0
1214	6.065	121.7186813	1206.809937	-2317.036621	228.5895996	1272.229736	-98.13877869	512.7774658	1429.326172	-1200.93103	450.216156	1449.071533	-1125.970825	453.7488403	1441.729858	-1284.005493	266.357605	1348.104004	-1197.611694	124.3297729	1213.805054	-1199.173706	105.7117996	1192.021362	-1202.343994	70.72307587	1139.326538	-1153.359863	79.76160431	1135.738403	-1202.155884	64.49976349	1089.362793	-1196.162598	21.30398369	1067.386475	-1192.971191	-0.603523552	1011.822693	-1140.000366	-7.208956242	1012.162537	-1189.734863	-32.01980972	932.1359863	-1213.725708	-19.07824516	940.7139282	-1164.958374	-56.9478035	886.8859863	-1172.37439	91.73530579	714.0631104	-1451.524902	69.63097382	637.1224365	-1447.524414	110.9874725	657.4905396	-1468.182495	128.118042	327.4619141	-1558.314575	87.27561188	259.7966003	-1557.362671	135.4279938	266.6416016	-1568.588745	60.8263855	42.03215027	-1516.839844	263.3757935	47.57840347	-1560.156616	206.0681458	23.4234581	-1658.324341	92.02867889	687.4716187	-931.5269165	145.063446	640.8313599	-894.1688232	100.5306854	628.2601318	-913.8480225	89.17881775	323.3546448	-826.5742798	126.5395279	257.6665344	-802.3413086	81.65115356	262.0226135	-824.3209839	49.94380569	39.7647934	-875.6650391	241.594162	43.88168335	-793.6088867	170.0870819	37.42586517	-709.6098633	361.3881531	1204.571167	-1210.415283	332.6890869	1049.494019	-1202.72937	227.3569183	1282.215942	-1387.172363	94.82902527	1194.56604	-1404.189819	63.71165085	1153.729858	-1363.413818	59.16329193	1151.56665	-1413.924438	46.17448807	1115.167847	-1492.17041	90.11688232	1130.791992	-1537.377808	87.76430511	1163.337891	-1499.354614	136.0748291	1206.423462	-1551.601074	260.7435608	1286.255981	-1016.657837	134.9551544	1186.248657	-974.3444824	77.42917633	1162.393921	-980.7842407	87.84079742	1150.511963	-897.5360107	134.1941528	1194.52417	-908.4177246	129.3846436	1179.828857	-859.5842896	162.1859589	1215.50415	-840.28479	nan	nan	nan	0.226400003	0.046924401	-0.255560994	0.089198999	0.166884005	-0.116045997	0.075439103	0.0217865	-0.133496001	0.084969699	0.190423995	-0.772217989	0.331690013	2.982480049	-0.334527999	2.868619919	0	0
1215	6.07	121.6182404	1208.338379	-2317.070557	228.1774139	1274.218628	-98.15809631	512.5883179	1430.824463	-1200.821777	450.0167542	1450.533081	-1125.853638	453.5572205	1443.309448	-1283.890137	266.1317749	1349.65686	-1197.623779	124.1068115	1215.123169	-1199.168701	105.4962082	1193.220825	-1202.304443	70.64607239	1140.435669	-1153.315918	79.65956116	1136.886353	-1202.119751	64.49292755	1090.346558	-1196.136353	21.42214966	1068.157593	-1192.953491	-0.260180742	1012.46936	-1140.019775	-6.887160301	1012.825745	-1189.752075	-31.36936188	932.8515015	-1213.829224	-18.44028664	941.4171143	-1165.054077	-56.27857208	887.5730591	-1172.496338	91.96279907	714.6762695	-1451.395508	69.49171448	637.8554077	-1447.151001	110.9283829	657.9611816	-1467.900635	127.2680893	327.5579834	-1557.754272	86.61998749	259.7762756	-1556.896729	134.7390594	266.7841187	-1568.171875	60.80626678	41.98283768	-1516.858887	263.3596191	47.60766602	-1560.181641	206.0666351	23.40741158	-1658.345215	91.96942139	687.9877319	-932.1499023	144.6640015	640.9054565	-894.8673706	100.0879822	628.666687	-914.6575928	88.24433136	323.3710022	-827.3913574	125.78582	257.8859863	-802.9019165	80.9196167	262.0237732	-824.9718628	49.92848969	39.69358063	-875.6799316	241.5896912	43.8992691	-793.5993652	170.1016998	37.42120743	-709.6296387	361.1713867	1206.124756	-1210.372192	332.4916687	1051.101807	-1202.702759	227.1479187	1283.719849	-1387.161865	94.6734314	1195.995239	-1404.138184	63.59101486	1155.125854	-1363.373779	59.03509521	1152.971924	-1413.885254	46.0574646	1116.574219	-1492.155029	89.99157715	1132.215942	-1537.366699	87.6129303	1164.752319	-1499.363159	135.9125519	1207.870117	-1551.612549	260.4855957	1287.867188	-1016.667419	134.6882324	1187.835693	-974.3985596	77.17150879	1163.918945	-980.8657837	87.58026886	1152.102295	-897.5859985	133.9361267	1196.115723	-908.4651489	129.1099396	1181.422119	-859.6182251	161.9192352	1217.103516	-840.2896118	nan	nan	nan	0.225370005	0.047134101	-0.248995006	0.092258602	0.164620996	-0.117899001	0.076032497	0.021980399	-0.133293003	0.085747197	0.188448995	-0.779399991	0.331420004	2.978980064	-0.330520004	2.867759943	0	0
1216	6.075	121.5233307	1209.825684	-2317.100098	227.7699127	1276.166016	-98.1728363	512.4050903	1432.2677	-1200.709717	449.8218079	1451.938232	-1125.735474	453.3713074	1444.841309	-1283.772705	265.9074097	1351.166382	-1197.640259	123.8771667	1216.401855	-1199.161133	105.2767639	1194.379761	-1202.262207	70.5620575	1141.505981	-1153.270508	79.55217743	1137.994873	-1202.081421	64.4810257	1091.292603	-1196.106201	21.53796959	1068.894775	-1192.930054	0.078913584	1013.083557	-1140.033936	-6.570073605	1013.457214	-1189.763794	-30.72932053	933.5305786	-1213.928345	-17.81577873	942.081604	-1165.14624	-55.61779022	888.2182007	-1172.617554	92.18016815	715.2688599	-1451.266357	69.34557343	638.569458	-1446.779175	110.8610229	658.4140625	-1467.618408	126.414299	327.651001	-1557.195068	85.96140289	259.7527161	-1556.429199	134.0453033	266.9238586	-1567.756226	60.78490448	41.9319191	-1516.879639	263.3431091	47.63753128	-1560.206909	206.0671844	23.39243507	-1658.368652	91.90214539	688.4787598	-932.7739868	144.2573395	640.9628296	-895.5657959	99.64212036	629.0524292	-915.4666748	87.31735992	323.380188	-828.2072754	125.0372009	258.0997009	-803.4620361	80.19421387	262.0196228	-825.6228638	49.91353226	39.62255859	-875.6956177	241.5858917	43.9175415	-793.5892944	170.1155548	37.41851425	-709.6478882	360.95047	1207.630615	-1210.330688	332.2904663	1052.660522	-1202.679199	226.9359283	1285.184204	-1387.149292	94.50988007	1197.39209	-1404.082275	63.46167374	1156.490967	-1363.328247	58.89645767	1154.346924	-1413.841064	45.92840958	1117.950562	-1492.135254	89.85658264	1133.605591	-1537.350586	87.45319366	1166.135376	-1499.364624	135.7476807	1209.279907	-1551.619263	260.2296753	1289.435181	-1016.676453	134.4148712	1189.388672	-974.4517822	76.91291809	1165.414185	-980.9456177	87.31230164	1153.660645	-897.6357422	133.6731567	1197.672485	-908.5123901	128.8295135	1182.980469	-859.651062	161.6486511	1218.665161	-840.2922363	nan	nan	nan	0.223720998	0.047189798	-0.241696998	0.096336201	0.162202999	-0.120200001	0.07632	0.0223094	-0.133074	0.0860475	0.187241003	-0.786422014	0.331200004	2.974570036	-0.326191008	2.866990089	0	0
